<svg xmlns="http://www.w3.org/2000/svg" width="1200" height="630" viewBox="0 0 1200 630">
	<defs>
		<pattern id="dots" width="28" height="28" patternUnits="userSpaceOnUse">
			<circle cx="2" cy="2" r="1.5" fill="#151515" opacity=".16" />
		</pattern>
		<clipPath id="screenshot-crop">
			<rect x="734" y="148" width="398" height="382" />
		</clipPath>
	</defs>

	<rect width="1200" height="630" fill="#fff8e7" />
	<rect width="1200" height="630" fill="url(#dots)" />
	<rect x="18" y="18" width="1164" height="594" fill="none" stroke="#151515" stroke-width="4" />

	<g transform="translate(66 55)">
		<rect x="5" y="5" width="46" height="46" fill="#151515" />
		<rect width="46" height="46" fill="#5547d9" stroke="#151515" stroke-width="3" />
		<g fill="#b9ff48">
			<rect x="9" y="9" width="11" height="11" />
			<rect x="26" y="9" width="11" height="11" />
			<rect x="9" y="26" width="11" height="11" />
			<rect x="26" y="26" width="11" height="11" />
		</g>
		<text x="66" y="33" fill="#151515" font-family="Arial, sans-serif" font-size="24" font-weight="900">Vova’s Post Grids</text>
	</g>

	<g transform="translate(66 154)">
		<rect x="4" y="4" width="236" height="34" fill="#151515" />
		<rect width="236" height="34" fill="#79e5f3" stroke="#151515" stroke-width="3" />
		<text x="15" y="23" fill="#151515" font-family="Arial, sans-serif" font-size="12" font-weight="900" letter-spacing="1.7">NATIVE GUTENBERG BLOCK</text>

		<text x="0" y="116" fill="#151515" font-family="Arial, sans-serif" font-size="72" font-weight="900" letter-spacing="-4.5">Build a post</text>
		<text x="0" y="190" fill="#151515" font-family="Arial, sans-serif" font-size="72" font-weight="900" letter-spacing="-4.5">grid that plays</text>
		<text x="0" y="272" fill="#5547d9" font-family="Georgia, serif" font-size="74" font-style="italic" font-weight="700" letter-spacing="-4">by your rules.</text>
		<path d="M 0 289 C 120 282, 300 299, 506 286" fill="none" stroke="#ff5ba7" stroke-width="15" />

		<text x="0" y="333" fill="#151515" font-family="Arial, sans-serif" font-size="18" font-weight="700">Responsive layouts · Flexible queries · AJAX pagination</text>

		<rect x="5" y="374" width="194" height="53" fill="#151515" />
		<rect y="369" width="194" height="53" fill="#b9ff48" stroke="#151515" stroke-width="3" />
		<text x="22" y="402" fill="#151515" font-family="Arial, sans-serif" font-size="14" font-weight="900">FOSS  ↘</text>
	</g>

	<g transform="rotate(1.5 934 325)">
		<rect x="744" y="111" width="408" height="440" fill="#151515" />
		<rect x="730" y="97" width="408" height="440" fill="#fffef8" stroke="#151515" stroke-width="4" />
		<rect x="730" y="97" width="408" height="51" fill="#5547d9" stroke="#151515" stroke-width="4" />
		<circle cx="754" cy="123" r="7" fill="#ff5ba7" stroke="#151515" stroke-width="2" />
		<circle cx="777" cy="123" r="7" fill="#ffd93d" stroke="#151515" stroke-width="2" />
		<circle cx="800" cy="123" r="7" fill="#b9ff48" stroke="#151515" stroke-width="2" />
		<text x="986" y="128" fill="#fffef8" font-family="Arial, sans-serif" font-size="10" font-weight="900" letter-spacing="1.3">REAL SCREENSHOT</text>

		<g clip-path="url(#screenshot-crop)">
			<image href="./screenshots/classic-grid.webp" x="620" y="91" width="760" height="485" />
		</g>
		<rect x="732" y="146" width="404" height="389" fill="none" stroke="#151515" stroke-width="4" />
	</g>

	<g transform="translate(1055 477) rotate(9)">
		<circle cx="0" cy="0" r="69" fill="#b9ff48" stroke="#151515" stroke-width="4" />
		<text x="0" y="-6" text-anchor="middle" fill="#151515" font-family="Arial, sans-serif" font-size="18" font-weight="900">NO PRO</text>
		<text x="0" y="18" text-anchor="middle" fill="#151515" font-family="Arial, sans-serif" font-size="18" font-weight="900">TIER</text>
	</g>
</svg>
